# xmcd CD database file
#
# Track frame offsets:
#	150
#	17204
#	34740
#	67452
#	86064
#	108387
#	132255
#	155141
#	173152
#	196595
#	222003
#	239079
#	261439
#	284322
#	307757
#
# Disc length: 4384 seconds
#
# Revision: 1
# Processed by: cddbd v1.5.1PL2 Copyright (c) Steve Scherf et al.
# Submitted via: CDex 1.51
#
DISCID=dd111e0f
DTITLE=埼玉最終兵器 - DECEITFUL WINGS
DYEAR=2005
DGENRE=Rock
TTITLE0=Ferocious Drive
TTITLE1=Inferno
TTITLE2=還らずの塔
TTITLE3=幻の翼
TTITLE4=Duke of Stratosphere
TTITLE5=Beat of Illusion
TTITLE6=Horned Enigma
TTITLE7=巨大遊戯盤
TTITLE8=Alchemic Blast
TTITLE9=Deceitful Wings(Album Mix)
TTITLE10=Ferocious Drive(Ver-0)
TTITLE11=Duke of Stratosphere(Ver-0)
TTITLE12=Horned Enigma(Ver-0)
TTITLE13=Alchemic Blast(Ver-0)
TTITLE14=巨大遊戯盤(Ver-2)
EXTD=YEAR: 2005
EXTT0=
EXTT1=
EXTT2=
EXTT3=
EXTT4=
EXTT5=
EXTT6=
EXTT7=
EXTT8=
EXTT9=
EXTT10=
EXTT11=
EXTT12=
EXTT13=
EXTT14=
PLAYORDER=
